<svg aria-hidden="true" style="position:absolute;width:0;height:0"
     xmlns="http://www.w3.org/2000/svg" overflow="hidden">
  <defs>
    <symbol id="check" viewBox="0 0 34 32">
      <path fill="var(--color1, #2196f3)"
            d="M4.267 0h25.6a4.267 4.267 0 014.267 4.267v23.467a4.267 4.267 0 01-4.267 4.267h-25.6A4.267 4.267 0 010 27.734V4.267A4.267 4.267 0 014.267 0z" />
      <path fill="var(--color2, #fff)" stroke="var(--color2, #fff)"
            stroke-width=".427"
            d="M8.442 16.537l-.147-.14-2.205 2.088 7.767 7.41 16.318-15.567-2.19-2.089-14.128 13.465-5.416-5.167z" />
    </symbol>
    <symbol id="email" viewBox="0 0 32 32">
      <path
            d="M26.667 5.333H5.334A2.663 2.663 0 002.681 8l-.013 16c0 1.467 1.2 2.667 2.667 2.667h21.333c1.467 0 2.667-1.2 2.667-2.667V8c0-1.467-1.2-2.667-2.667-2.667zm0 5.334L16 17.334 5.333 10.667V8L16 14.667 26.667 8v2.667z" />
    </symbol>
    <symbol id="lock" viewBox="0 0 32 32">
      <path
            d="M24 10.667h-1.333V8c0-3.68-2.987-6.667-6.667-6.667S9.333 4.32 9.333 8v2.667H8a2.675 2.675 0 00-2.667 2.667v13.333c0 1.467 1.2 2.667 2.667 2.667h16c1.467 0 2.667-1.2 2.667-2.667V13.334c0-1.467-1.2-2.667-2.667-2.667zm-8 12c-1.467 0-2.667-1.2-2.667-2.667s1.2-2.667 2.667-2.667 2.667 1.2 2.667 2.667-1.2 2.667-2.667 2.667zm4.133-12h-8.267V8c0-2.28 1.853-4.133 4.133-4.133S20.132 5.72 20.132 8v2.667z" />
    </symbol>
  </defs>
</svg>