<svg aria-hidden="true" style="position:absolute;width:0;height:0" xmlns="http://www.w3.org/2000/svg" overflow="hidden"><defs><symbol id="cat" viewBox="0 0 32 32"><path d="M27.11.369c-.314-.262-.864-.51-1.4-.275-1.021.694 3.585 3.533 1.256 13.033-.484 1.963-1.675.942-3.088.51-3.219-1.008-6.66-1.23-9.997-1.583-1.178-.131-2.381-.222-3.52-.537-1.204-.327-1.256-.393-.955-1.492.837-1.06.497-2.512.458-3.114.628-1.387.864-2.591.366-3.206-1.348-1.596-1.57 2.538-3.324 2.552-.798-.079-1.322-.013-1.518-.445-.353-.746-.903-1.714-1.609-2.172-1.086-.72-1.308 1.269-.851 3.153-.144 1.151-.039 1.937.55 2.774.301.419.366.942.458 1.439.17.864.275 1.937.275 2.813 0 .497.092 2.041.17 2.538.366 2.251.484 2.695 2.172 4.344.707.694 1.78 1.295 2.224 2.224.327.707.615 1.479.916 2.185.589 1.361.955 2.748 1.204 4.2.144.785-1.727.955-1.413 2.041.249.89 2.63.877 2.774-.144.092-.576.366-1.623.497-2.421.694-2.996-.327-4.161.471-6.883.209-.981 4.043.916 4.567 1.269 1.06.72 2.198 1.295 3.271 1.989 1.662 1.073.51 2.015-.563 2.892-.576.471-.576.497-1.308.327-.602-.118-1.073.249-1.204.68-.196.615.694 1.034 1.308.955 1.845-.196 4.397-2.12 5.195-3.782.537.628.314 1.217.013 2.015-.131.34-.275.667-.393 1.008-.262.772-.51.563-1.138.707-.929.301-.51 1.662.51 1.505.353-.052 1.688-.209 1.832-.824.065-.275.34-.837.471-1.112.288-.68 1.884-4.24 1.178-4.92a5.862 5.862 0 01-.929-1.112c-.432-.68-.236-.759.144-1.335.393-.602.746-1.308 1.086-1.937.772-1.492.196-2.774.877-4.763 2.107-6.372 1.06-13.347-1.034-15.1z"/></symbol><symbol id="dog" viewBox="0 0 32 32"><path d="M31.958 9.627a.649.649 0 00-.367-.375l-2.843-1.147a2.428 2.428 0 00-1.772-1.886l-.153-1.767a.652.652 0 00-1.134-.382l-.73.805-.451-1.579a.653.653 0 00-1.241-.043l-3.37 9.297-12.489.583a6.543 6.543 0 01-6.177-3.49.652.652 0 10-1.156.606 7.852 7.852 0 005.116 3.984c-.225.262-.707.91-.989 1.93-.307 1.109-.417 2.877.711 5.122l-1.83 2.486a.65.65 0 00-.116.505l.805 4.367c.057.31.327.534.642.534h.82a.653.653 0 00.642-.769l-.51-2.801 5.396-4.051c.009-.007-.009.008 0 0 .516-.433.89-.911 1.158-1.401 2.812.494 6.661 1.162 9.128 1.559l1.087 6.913c.05.317.323.551.645.551h.675a.653.653 0 00.653-.653v-7.017c.613-.418.832-1.118.977-1.804l1.452-6.702c.273.045.548.069.826.069 1.911 0 3.662-1.119 4.568-2.921a.655.655 0 00.028-.524z"/></symbol><symbol id="pig" viewBox="0 0 32 32"><path d="M31.522 12.843c-.166.046-.288.235-.23.406.019.055.033.111.043.168a1.24 1.24 0 01-.001.228 1.34 1.34 0 01-.071.257 1.355 1.355 0 01-.131.226l-.01.014c-.021.025-.043.05-.066.074-.029.029-.058.058-.089.085l-.019.016-.023.017a1.379 1.379 0 01-.191.108c-.091.035-.186.06-.282.077a1.725 1.725 0 01-.337 0 1.761 1.761 0 01-.35-.096 1.604 1.604 0 01-.258-.147l-.028-.02a.782.782 0 01-.044-.037c.032-.018.063-.036.093-.056.266-.173.508-.418.634-.714.078-.184.132-.364.142-.566a1.172 1.172 0 00-.076-.504 1.096 1.096 0 00-.742-.682.951.951 0 00-.938.251c-.223.239-.322.552-.345.873-.021.294.029.606.127.884l.012.032a1.201 1.201 0 01-.132-.044 1.362 1.362 0 01-.18-.098l-.058-.039a1.33 1.33 0 01-.16-.15c-.013-.014-.05-.062-.058-.07l-.01-.015a1.313 1.313 0 01-.114-.435c-.006-.056.006-.078.064-.093a.683.683 0 00.512-.751.87.87 0 00-.893-.781c-.135.002-.269.023-.404.033a.1.1 0 01-.058-.016c-.106-.075-.206-.159-.316-.226-.394-.239-.794-.465-1.185-.708-.366-.228-.721-.474-1.085-.704a9.082 9.082 0 00-1.895-.924 7.292 7.292 0 00-1.872-.379c-.352-.025-.705-.046-1.057-.068-.38-.025-.759-.054-1.14-.074-.399-.02-.798-.037-1.197-.044-.539-.01-1.077-.01-1.616-.013-.535-.002-1.07.005-1.605-.005-.524-.009-1.047-.035-1.57-.053-.036-.001-.073-.007-.109-.01h-.385c-.025.003-.05.008-.075.01-.184.012-.369.02-.553.035-.33.027-.654.091-.974.172-.46.117-.907.275-1.347.452-.654.263-1.29.565-1.92.879-.265.132-.526.272-.793.4-.349.167-.704.32-1.052.49-.649.317-1.272.68-1.86 1.1a8.551 8.551 0 00-.865.699c-.114.106-.221.218-.331.327-.03.029-.058.055-.109.044a4.326 4.326 0 01-.883-.268c-.056-.026-.106-.069-.152-.112s-.077-.099-.124-.139c-.076-.065-.153-.133-.24-.178-.116-.06-.239-.004-.284.119a.618.618 0 00-.034.171c-.006.077-.001.156-.001.235-.014-.001-.028-.003-.043-.003-.115-.001-.184.066-.175.181.004.055.02.112.04.164.058.153.148.288.262.401.178.178.326.379.47.584a1.14 1.14 0 00.741.456c.094.018.189.034.244.126.01.018.014.041.014.062-.001.068-.016.136-.007.202.021.155.049.31.08.463.055.268.131.532.139.808.005.184-.016.363-.142.51-.052.061-.109.117-.198.125-.149.012-.237.092-.259.242-.005.036-.025.052-.064.05a.254.254 0 00-.231.11.176.176 0 01-.162.075c-.08-.007-.159-.021-.238-.032-.183-.026-.198.051-.162.189.037.143.086.282.127.424a.496.496 0 01.019.139c.002.15-.012.3.002.449.026.283.188.473.497.456a.297.297 0 01.194.054.624.624 0 01.24.246c-.04.032-.081.063-.12.096-.059.05-.068.111-.015.166a.813.813 0 00.521.263c.153.015.303-.013.452-.039.254-.043.508-.052.754.032.45.153.91.253 1.385.277.233.012.465 0 .696-.031a2.99 2.99 0 00.919-.273.546.546 0 01.457-.022c.138.055.268.131.399.202.159.086.32.151.506.097.106-.03.146-.009.212.086.138.198.171.424.177.656.005.172-.005.345.002.517.007.158.028.316.043.475.003.035.019.074.011.105-.071.262-.143.524-.223.783a1.02 1.02 0 01-.343.529.695.695 0 00-.161.203c-.033.059-.063.121-.094.182a2.081 2.081 0 01-.354.516c.065.03.119.065.179.08.367.095.723.051 1.061-.111.101-.048.186-.074.294-.037.079.027.152-.003.199-.078.02-.032.044-.064.056-.1.032-.096.063-.193.086-.291.044-.194.084-.388.121-.583.057-.297.136-.585.296-.847a1.56 1.56 0 00.207-.457c.015-.065.024-.132.036-.198.009-.001.016-.003.024-.002.135.013.221.091.265.213.036.099.061.202.09.304.047.166.116.318.259.427.066.05.134.105.181.172.181.259.419.417.735.457.015.002.028.015.042.024.04.028.078.062.121.084.178.093.356.184.536.274.012.006.041 0 .049-.01.031-.04.067-.081.084-.127.103-.287.047-.55-.134-.788-.047-.062-.116-.107-.178-.163.02-.009.042-.022.065-.029.058-.017.117-.028.174-.047.078-.027.101-.079.067-.154a.474.474 0 00-.273-.247c-.08-.031-.164-.051-.244-.08-.021-.007-.039-.028-.053-.047-.046-.062-.083-.135-.138-.187-.064-.061-.144-.106-.217-.158-.041-.029-.073-.063-.079-.118a.375.375 0 01.179-.374c.078-.051.157-.101.237-.149.202-.12.371-.271.489-.477a.436.436 0 01.202-.187c.304-.136.565-.335.81-.556.037-.033.071-.067.123-.076.085-.014.168-.036.253-.045.326-.035.651-.018.976.013.238.023.476.055.713.084.31.037.62.079.93.112.274.029.549.057.825.074.333.02.666.021.999-.007.272-.023.541-.059.804-.13a7.49 7.49 0 011.546-.259c.388-.02.771-.002 1.151.08.173.038.343.086.495.182.03.019.044.041.048.079.024.233.047.465.079.697.041.292.089.583.072.878a.961.961 0 01-.119.428c-.221.387-.444.773-.66 1.162-.103.185-.199.374-.237.586-.005.03.001.065-.012.09a8.92 8.92 0 01-.216.411c-.038.067-.088.128-.137.199.168.026.325.054.484.075.215.027.43.041.644-.007.191-.043.347-.134.42-.329.002-.004.008-.006.009-.007.036.025.068.053.105.072.099.053.267.002.257-.154-.006-.101.01-.204.02-.306.026-.269.091-.528.195-.777.184-.443.481-.804.828-1.127a.386.386 0 01.138-.075c.089-.031.182-.053.273-.078a.331.331 0 00.23-.188c.047-.11.095-.221.126-.337.029-.106.036-.218.052-.328a.42.42 0 01.358.16c.044.065.077.137.123.2.056.076.121.145.181.217.039.047.089.088.115.142.126.253.145.53.164.805.011.17 0 .341.002.511.002.2.002.399.013.598a.388.388 0 01-.042.209c-.077.141-.158.28-.239.419-.064.11-.054.133.072.154.311.052.62.038.923-.046.201-.056.385-.144.462-.362.038.015.074.033.113.044.09.026.145-.013.158-.105a.644.644 0 00-.057-.336c-.152-.361-.289-.725-.335-1.118a1.537 1.537 0 01.034-.577c.046-.171.137-.317.233-.463.044-.068.089-.139.067-.224-.01-.04 0-.064.022-.094.095-.134.149-.283.099-.444a2.045 2.045 0 00-.156-.348c-.102-.188-.206-.375-.241-.589-.005-.032-.006-.073.009-.099.213-.362.43-.722.645-1.083.182-.306.365-.614.47-.956.104-.338.187-.682.287-1.021a6.172 6.172 0 00.242-1.607 1.693 1.693 0 00.934.208 2.015 2.015 0 00.923.654c.614.213 1.34.109 1.821-.343.438-.411.656-1.083.46-1.663-.058-.169-.225-.279-.406-.229zm-2.175.627a1.069 1.069 0 01-.08.071l-.017.013a1.55 1.55 0 01-.219.128l-.029-.062a2.256 2.256 0 01-.131-.478 1.762 1.762 0 01-.004-.363c.013-.078.033-.154.06-.228a.635.635 0 01.044-.081l.022-.034a.737.737 0 01.061-.062.691.691 0 01.065-.038.49.49 0 01.063-.017h.081c.035.007.07.017.104.029a.86.86 0 01.084.047l.017.012a1.11 1.11 0 01.081.081c.02.03.038.061.053.093.017.048.03.097.04.147a1.23 1.23 0 01-.001.192 1.317 1.317 0 01-.061.221 1.276 1.276 0 01-.113.196l-.019.025-.021.024a1.568 1.568 0 01-.079.083z"/></symbol><symbol id="supercat" viewBox="0 0 512 512"><path d="M170.991 283.153C137.845 299.728 64.142 373.6 33.083 441.072c-3.312 7.195-.617 15.758 6.263 19.685 48.015 27.407 167.804 23.111 224.694 13.003 23.381-52.235 4.501-199.788 4.501-199.788l-97.55 9.181z" fill="#bd4568"/><path d="M61.626 472.594a15.402 15.402 0 01-9.883-3.579c-6.564-5.463-7.457-15.213-1.993-21.777 27.654-33.227 52.162-39.648 73.783-45.313 15.905-4.167 29.64-7.766 45.06-22.576 6.161-5.915 15.949-5.718 21.863.44 5.916 6.159 5.719 15.948-.44 21.864-21.222 20.383-41.103 25.593-58.645 30.189-19.606 5.137-36.538 9.573-57.852 35.18a15.43 15.43 0 01-11.893 5.572z" fill="#eda751"/><path d="M58.992 436.991a170.01 170.01 0 00-9.243 10.248c-5.464 6.564-4.571 16.314 1.993 21.777a15.4 15.4 0 009.883 3.579c4.434 0 8.836-1.897 11.893-5.571a137.415 137.415 0 018.599-9.446c-5.736-9.678-14.931-17.134-23.125-20.587z" fill="#fcd79d"/><g fill="#eda751"><path d="M147.036 511.635c-8.912 0-17.521-4.829-21.94-13.273-6.336-12.106-1.659-27.056 10.447-33.393 28.199-14.76 42.338-33.368 54.812-49.787a876.64 876.64 0 014.13-5.407c8.351-10.813 23.89-12.811 34.703-4.459 10.814 8.352 12.81 23.889 4.459 34.703-1.274 1.65-2.567 3.352-3.893 5.097-14.048 18.491-33.289 43.814-71.266 63.692a24.619 24.619 0 01-11.452 2.827zM267.041 512c-7.107 0-14.159-3.046-19.053-8.943-8.724-10.515-7.273-26.113 3.241-34.838 20.329-16.867 16.206-40.008 14.552-43.865-5.384-12.558.431-27.103 12.99-32.488 12.559-5.384 27.104.432 32.488 12.99 9.518 22.201 10.216 69.373-28.432 101.442A24.64 24.64 0 01267.041 512zM335.653 365.049c-12.263 0-22.905-9.109-24.507-21.594-1.74-13.553 7.838-25.949 21.389-27.688 17.321-2.222 70.373-31.069 101.366-55.118 10.796-8.377 26.337-6.415 34.714 4.38 8.375 10.795 6.415 26.337-4.38 34.713-30.933 24.001-93.388 60.995-125.401 65.103a24.848 24.848 0 01-3.181.204z"/></g><g fill="#a35f00"><path d="M381.379 350.217c.338-17.327-3.093-34.355-10.022-50.24-16.586 8.645-31.182 14.809-38.822 15.79-13.552 1.739-23.129 14.135-21.389 27.688 1.602 12.485 12.245 21.594 24.507 21.594 1.049 0 2.113-.066 3.181-.204 11.296-1.449 26.389-7.004 42.545-14.628zM278.771 391.866c-12.559 5.384-18.374 19.93-12.99 32.488 1.654 3.857 5.777 26.998-14.552 43.865a24.807 24.807 0 00-3.952 4.142c.78.013 1.561.037 2.339.037 22.753 0 44.928-5.508 64.476-15.793 4.892-20.332 2.328-39.712-2.833-51.749-5.384-12.557-19.929-18.373-32.488-12.99zM229.189 405.317c-10.813-8.352-26.352-6.354-34.703 4.459a838.768 838.768 0 00-4.13 5.407c-7.159 9.422-14.872 19.565-25.47 29.289 13.884 10.445 29.768 18.206 46.893 22.865 7.102-7.914 12.884-15.516 17.976-22.219 1.326-1.745 2.619-3.447 3.893-5.097 8.351-10.815 6.355-26.353-4.459-34.704zM168.592 379.349c-14.126 13.568-26.84 17.727-41.103 21.533a129.243 129.243 0 0015.123 22.459 133.44 133.44 0 003.735 4.267c13.598-4.375 28.28-11.175 43.667-25.954 6.158-5.916 6.355-15.704.44-21.864-5.913-6.158-15.701-6.356-21.862-.441z" opacity=".2"/></g><ellipse transform="rotate(-82.807 247.377 346.229)" cx="247.369" cy="346.218" rx="106.037" ry="114.106" fill="#fcd690"/><g fill="#ff91ab"><path d="M247.709 429.085c-.919 0-1.841-.032-2.764-.098-12.04-.853-21.813-7.239-26.816-17.519a7.5 7.5 0 013.463-10.026 7.498 7.498 0 0110.025 3.462c3.374 6.934 9.686 8.787 14.389 9.12 7.133.513 14.746-2.401 17.693-6.763a7.501 7.501 0 0112.428 8.4c-5.557 8.222-16.732 13.424-28.418 13.424z"/><circle cx="284.401" cy="377.75" r="42.937"/></g><path d="M217.73 448.215c-47.451-40.493-22.635-108.087-10.011-137.424l8.48-67.223c-42.958 10.667-76.496 44.573-82.021 88.368-6.671 52.883 29.801 101.944 83.552 116.279z" opacity=".15" fill="#c17a00"/><path d="M144.533 271.819c-18.143 2.152-29.456 47.092 9.175 50.359 52.761 4.461 106.94 10.438 129.792 24.609 4.01 2.487 9.009 2.496 13.139.215 21.706-11.986 60.284-11.155 72.69-13.073 28.737-4.443 15.33-49.419-2.946-48.403-18.276 1.016-221.85-13.707-221.85-13.707z" fill="#bd4568"/><path d="M201.551 156.944c23.313-17.497 39.906-48.095 10.98-96.231C183.376 12.196 136.821-2.098 99.742.241c-9.141.576-17.11 6.557-20.217 15.174-12.603 34.95-11.882 83.645 26.559 125.191 38.14 41.221 72.155 33.835 95.467 16.338z" fill="#eda751"/><path d="M77.746 20.771c-10.648 34.458-8.18 80.368 28.337 119.835 33.059 35.729 63.012 34.932 85.59 22.694C182.19 60.479 118.021 29.864 77.746 20.771z" fill="#ff91ab"/><path d="M340.235 164.48c-21.28-19.92-34.46-52.136-.488-96.854 34.24-45.072 82.07-54.237 118.677-47.895 9.025 1.564 16.299 8.373 18.454 17.275 8.742 36.11 2.749 84.44-39.968 121.576-42.381 36.846-75.395 25.818-96.675 5.898z" fill="#eda751"/><path d="M478.066 42.523c6.851 35.409-.576 80.781-41.155 116.059-36.735 31.937-66.426 27.899-87.545 13.286 20.569-101.187 87.678-124.67 128.7-129.345z" fill="#ff91ab"/><path d="M463.347 199.49c-4.819 88.697-93.781 122.825-200.918 117.004-107.137-5.821-191.877-49.389-187.058-138.085 4.82-88.697 95.578-155.88 202.714-150.059s190.081 82.444 185.262 171.14z" fill="#ffdc9c"/><path d="M173.158 47.518c-55.875 25.509-94.681 73.729-97.787 130.891-4.143 76.246 57.896 119.143 143.452 133.382-119.548-80.519-98.039-178.918-45.665-264.273z" opacity=".15" fill="#c17a00"/><g fill="#ff91ab"><ellipse transform="rotate(-86.887 201.977 178.029)" cx="201.977" cy="178.024" rx="28.009" ry="35.179"/><ellipse transform="rotate(93.113 392.404 188.354)" cx="392.397" cy="188.357" rx="28.009" ry="35.179"/></g><g fill="#495059"><path d="M223.986 158.729a7.5 7.5 0 01-7.496-7.906l.674-12.403c.226-4.137 3.764-7.315 7.896-7.082a7.5 7.5 0 017.082 7.895l-.674 12.403a7.5 7.5 0 01-7.482 7.093zM373.429 166.849a7.5 7.5 0 01-7.496-7.906l.674-12.403c.226-4.137 3.78-7.308 7.896-7.082a7.5 7.5 0 017.082 7.896l-.674 12.403a7.5 7.5 0 01-7.482 7.092zM299.605 172.352a33.667 33.667 0 01-26.547-12.97 7.5 7.5 0 0111.826-9.227 18.666 18.666 0 0013.707 7.169 18.68 18.68 0 0014.401-5.643 7.498 7.498 0 0110.605-.151 7.499 7.499 0 01.152 10.605 33.664 33.664 0 01-24.144 10.217zM152.642 179.568a7.5 7.5 0 01-1.413-14.866c9.776-1.886 32.853-2.355 43.966-.268a7.5 7.5 0 11-2.77 14.742c-9.061-1.702-30.263-1.307-38.355.254a7.498 7.498 0 01-1.428.138zM161.57 221.794a7.501 7.501 0 01-4.127-13.768c8.318-5.469 29.476-14.695 40.547-17.001 4.048-.839 8.026 1.759 8.871 5.814a7.502 7.502 0 01-5.814 8.872c-9.027 1.879-28.48 10.323-35.363 14.849a7.466 7.466 0 01-4.114 1.234zM442.077 195.295a7.502 7.502 0 01-2.214-.335c-7.873-2.429-28.914-5.114-38.101-4.409a7.486 7.486 0 01-8.056-6.899 7.5 7.5 0 016.899-8.056c11.272-.874 34.165 2.095 43.679 5.031a7.5 7.5 0 01-2.207 14.668zM428.634 236.305a7.469 7.469 0 01-4.771-1.716c-6.353-5.245-24.774-15.747-33.547-18.593a7.5 7.5 0 014.631-14.267c10.757 3.491 30.79 14.956 38.467 21.293a7.502 7.502 0 01-4.78 13.283z"/></g><path d="M164.291 403.677c-20.785 0-39.72-10.032-49.481-26.679-5.724-9.762-7.901-21.174-6.293-33.002 1.51-11.119 6.326-22.478 14.316-33.762 7.893-11.152 23.334-13.792 34.488-5.894 11.151 7.896 13.79 23.337 5.894 34.488-5.632 7.954-5.922 12.443-5.691 13.211.471.71 3.848 2.552 8.437 2.067 13.595-1.449 25.775 8.397 27.219 21.985 1.446 13.587-8.397 25.773-21.984 27.219a65.7 65.7 0 01-6.905.367z" fill="#eda751"/><g opacity=".07"><path d="M312.118 344.968c-25.319 12.929-56.44 19.028-68.629 19.721a42.906 42.906 0 00-2.028 13.057c0 .636.021 1.266.048 1.895 14.745-.283 51.067-6.981 80.367-22.842a43.13 43.13 0 00-9.758-11.831zM327.149 381.656c.116-1.289.185-2.591.185-3.91 0-4.37-.657-8.586-1.871-12.559-27.918 17.908-69.839 25.33-82.074 25.319a42.847 42.847 0 007.755 14.397c18.366-1.811 50.356-8.835 76.005-23.247z"/></g></symbol></defs></svg>