<svg aria-hidden="true" style="position: absolute; width: 0; height: 0; overflow: hidden;" version="1.1" xmlns="http://www.w3.org/2000/svg" xmlns:xlink="http://www.w3.org/1999/xlink">
<defs>
<symbol id="smile" viewBox="0 0 32 32">
<path d="M16 0c-8.837 0-16 7.163-16 16s7.163 16 16 16 16-7.163 16-16-7.163-16-16-16zM22 8c1.105 0 2 0.895 2 2s-0.895 2-2 2-2-0.895-2-2 0.895-2 2-2zM10 8c1.105 0 2 0.895 2 2s-0.895 2-2 2-2-0.895-2-2 0.895-2 2-2zM16 26c-3.641 0-6.827-1.946-8.576-4.855l2.573-1.544c1.224 2.036 3.454 3.398 6.003 3.398s4.779-1.362 6.003-3.398l2.573 1.544c-1.749 2.908-4.935 4.855-8.576 4.855z"></path>
</symbol>
<symbol id="cool" viewBox="0 0 32 32">
<path d="M16 0c-8.837 0-16 7.163-16 16s7.163 16 16 16c8.837 0 16-7.163 16-16s-7.163-16-16-16zM16 26c-1.514 0-2.95-0.337-4.236-0.94l1.036-1.727c0.98 0.428 2.061 0.667 3.199 0.667 2.913 0 5.462-1.557 6.861-3.884l1.715 1.029c-1.749 2.908-4.935 4.855-8.576 4.855zM26 12c0 1.1-0.9 2-2 2h-4c-1.1 0-2-0.9-2-2h-4c0 1.1-0.9 2-2 2h-4c-1.1 0-2-0.9-2-2v-3c0-0.55 0.45-1 1-1h6c0.55 0 1 0.45 1 1v1h4v-1c0-0.55 0.45-1 1-1h6c0.55 0 1 0.45 1 1v3z"></path>
</symbol>
<symbol id="burger-open" viewBox="0 0 32 32"><path d="M28.903 1.548H3.097C1.394 1.548 0 2.942 0 4.645s1.394 3.097 3.097 3.097h25.806C30.606 7.742 32 6.348 32 4.645s-1.394-3.097-3.097-3.097zm0 11.355H3.097C1.394 12.903 0 14.297 0 16s1.394 3.097 3.097 3.097h25.806C30.606 19.097 32 17.703 32 16s-1.394-3.097-3.097-3.097zm0 11.355H3.097C1.394 24.258 0 25.652 0 27.355s1.394 3.097 3.097 3.097h25.806c1.703 0 3.097-1.394 3.097-3.097s-1.394-3.097-3.097-3.097z"/></symbol><symbol id="burger-close" viewBox="0 0 32 32"><path d="M30.918 6.303L21.222 16l9.696 9.696a3.694 3.694 0 01-5.221 5.223l-9.698-9.697-9.697 9.697C5.581 31.64 4.637 32 3.692 32s-1.889-.36-2.61-1.081a3.694 3.694 0 010-5.223L10.778 16 1.082 6.303a3.693 3.693 0 015.221-5.222l9.698 9.697 9.697-9.697a3.693 3.693 0 015.222 5.222z"/></symbol><symbol id="delete" viewBox="0 0 32 32"><path d="M8 25.333C8 26.8 9.2 28 10.667 28h10.667c1.467 0 2.667-1.2 2.667-2.667v-16h-16v16zm17.333-20h-4.667L19.333 4h-6.667l-1.333 1.333H6.666V8h18.667V5.333z"/></symbol><symbol id="edit" viewBox="0 0 32 32"><path d="M4 23v5h5l14.747-14.747-5-5L4 23zM27.613 9.387c.52-.52.52-1.36 0-1.88l-3.12-3.12c-.52-.52-1.36-.52-1.88 0l-2.44 2.44 5 5 2.44-2.44z"/></symbol><symbol id="facebook" viewBox="0 0 32 32"><path d="M27.688 0H4.312A4.313 4.313 0 000 4.312v23.376A4.312 4.312 0 004.312 32h11.529l.02-11.435H12.89a.701.701 0 01-.701-.698l-.014-3.686a.701.701 0 01.701-.704h2.965v-3.562c0-4.133 2.524-6.384 6.211-6.384h3.026c.387 0 .701.314.701.701V9.34a.701.701 0 01-.701.701l-1.857.001c-2.005 0-2.393.953-2.393 2.351v3.083h4.406a.7.7 0 01.696.784l-.437 3.686a.701.701 0 01-.696.619h-3.949L20.828 32h6.86A4.313 4.313 0 0032 27.688V4.312A4.312 4.312 0 0027.688 0z"/></symbol><symbol id="favorite" viewBox="0 0 32 32"><path d="M16 28.467l-1.933-1.76C7.2 20.48 2.667 16.374 2.667 11.334c0-4.107 3.227-7.333 7.333-7.333 2.32 0 4.547 1.08 6 2.787 1.453-1.707 3.68-2.787 6-2.787 4.107 0 7.333 3.227 7.333 7.333 0 5.04-4.533 9.147-11.4 15.387L16 28.468z"/></symbol><symbol id="instagram" viewBox="0 0 32 32"><path fill="var(--color2, #000)" d="M31.452 5.724A5.827 5.827 0 0026.276.548a96.709 96.709 0 00-20.552 0A5.827 5.827 0 00.548 5.724a96.709 96.709 0 000 20.552 5.827 5.827 0 005.176 5.176c6.844.73 13.709.73 20.553 0a5.827 5.827 0 005.176-5.176c.73-6.844.73-13.708 0-20.552z"/><path fill="var(--color2, #000)" d="M29.712 6.881a5.17 5.17 0 00-4.593-4.593 85.795 85.795 0 00-18.238 0 5.171 5.171 0 00-4.593 4.593 85.795 85.795 0 000 18.238 5.17 5.17 0 004.593 4.593 85.795 85.795 0 0018.238 0 5.17 5.17 0 004.593-4.593 85.795 85.795 0 000-18.238z"/><path fill="var(--color2, #000)" d="M.479 25.613l.068.664a5.827 5.827 0 005.176 5.176c6.844.73 13.709.73 20.552 0a5.827 5.827 0 005.176-5.176c.024-.221.046-.442.069-.664z"/><path fill="var(--color2, #000)" d="M31.452 26.276c.393-3.678.574-7.361.544-11.044l-7.314-7.314c-.914-1.043-2.249-1.694-3.817-1.751-3.225-.116-6.461-.11-9.687 0-2.679.092-4.553 1.893-5.033 4.54-.085.467-.136.941-.202 1.411v7.759c.037.251.091.502.108.755.107 1.61.769 2.989 1.828 3.922l7.443 7.443a96.755 96.755 0 0010.954-.545 5.827 5.827 0 005.176-5.176z"/><path fill="var(--color2, #000)" d="M31.452 26.276a5.827 5.827 0 01-5.176 5.176 96.738 96.738 0 01-10.953.545l-7.432-7.432c.862.754 1.985 1.213 3.288 1.262 3.225.121 6.461.118 9.687.002 2.917-.105 5.028-2.264 5.119-5.181.097-3.097.097-6.202 0-9.3-.041-1.346-.514-2.53-1.297-3.426l7.31 7.31a96.729 96.729 0 01-.545 11.044z"/><path fill="var(--color2, #000)" d="M19.776 12.535a5.125 5.125 0 10-7.241 7.241l11.859 11.859a99.877 99.877 0 001.883-.182 5.827 5.827 0 005.176-5.176c.067-.627.128-1.255.182-1.883zM31.938 19.447l-9.544-9.544a1.217 1.217 0 10-1.706 1.706l11.08 11.08c.075-1.081.132-2.162.171-3.243z"/><path fill="var(--color2, #000)" d="M5.943 12.119c.067-.471.117-.944.202-1.411.48-2.647 2.354-4.447 5.033-4.54 3.226-.111 6.461-.117 9.687 0 2.916.105 5.028 2.264 5.119 5.181.097 3.097.097 6.202 0 9.3-.091 2.917-2.202 5.076-5.119 5.181-3.225.116-6.462.119-9.687-.002-2.916-.11-4.933-2.274-5.128-5.195-.017-.253-.071-.503-.108-.755v-7.759zm10.06 11.982c1.476 0 2.954.044 4.428-.01 2.311-.086 3.733-1.465 3.787-3.774.067-2.877.067-5.758 0-8.636-.054-2.309-1.477-3.72-3.787-3.769a208.195 208.195 0 00-8.8 0c-2.293.048-3.719 1.431-3.781 3.714a161.406 161.406 0 000 8.746c.062 2.283 1.488 3.634 3.781 3.719 1.456.054 2.915.01 4.372.01z"/><path fill="var(--color3, #fff)" d="M5.943 12.119c.067-.471.117-.944.202-1.411.48-2.647 2.354-4.447 5.033-4.54 3.226-.111 6.461-.117 9.687 0 2.916.105 5.028 2.264 5.119 5.181.097 3.097.097 6.202 0 9.3-.091 2.917-2.202 5.076-5.119 5.181-3.225.116-6.462.119-9.687-.002-2.916-.11-4.933-2.274-5.128-5.195-.017-.253-.071-.503-.108-.755v-7.759zm10.06 11.982c1.476 0 2.954.044 4.428-.01 2.311-.086 3.733-1.465 3.787-3.774.067-2.877.067-5.758 0-8.636-.054-2.309-1.477-3.72-3.787-3.769a208.195 208.195 0 00-8.8 0c-2.293.048-3.719 1.431-3.781 3.714a161.406 161.406 0 000 8.746c.062 2.283 1.488 3.634 3.781 3.719 1.456.054 2.915.01 4.372.01z"/><path fill="var(--color3, #fff)" d="M16 10.875a5.125 5.125 0 100 10.25 5.125 5.125 0 000-10.25zm0 8.486a3.361 3.361 0 110-6.723 3.361 3.361 0 010 6.723zM22.644 10.641a1.22 1.22 0 11-2.439 0 1.22 1.22 0 012.439 0z"/></symbol><symbol id="twitter" viewBox="0 0 32 32"><path d="M26.276 31.452c-6.844.73-13.709.73-20.553 0a5.827 5.827 0 01-5.176-5.176 96.709 96.709 0 010-20.552A5.827 5.827 0 015.723.548a96.709 96.709 0 0120.552 0 5.827 5.827 0 015.176 5.176c.73 6.844.73 13.709 0 20.552a5.827 5.827 0 01-5.176 5.176z"/><path d="M29.712 6.881a5.17 5.17 0 00-4.593-4.593 85.795 85.795 0 00-18.238 0 5.171 5.171 0 00-4.593 4.593 85.795 85.795 0 000 18.238 5.17 5.17 0 004.593 4.593 85.795 85.795 0 0018.238 0 5.17 5.17 0 004.593-4.593 85.795 85.795 0 000-18.238z"/><path fill="var(--color2, #000)" d="M.479 25.613l.068.664a5.827 5.827 0 005.176 5.176c6.844.73 13.709.73 20.552 0a5.827 5.827 0 005.176-5.176c.024-.221.046-.442.069-.664z"/><path fill="var(--color2, #000)" d="M31.993 14.875l-6.642-6.642a7.85 7.85 0 01-1.895.792 5.472 5.472 0 01-.668.137 4.125 4.125 0 00-6.995 3.705c-.951-.014-4.042-.268-6.989-2.795l-1.39-1.39s-1.631 2.846.767 5.006c.105.117.221.233.348.347l.031.033c-.315-.021-1.261-.115-1.809-.502 0 0-.11 1.74 1.339 3.02l1.17 1.18c-.356.03-.751.022-1.025-.098 0 0 .243 1.031 1.181 1.855l1.64 1.648a8.49 8.49 0 01-4.972 1.107l9.947 9.719a96.83 96.83 0 0010.247-.548 5.827 5.827 0 005.176-5.176c.405-3.796.585-7.599.541-11.401z"/><path fill="var(--color3, #fff)" d="M25.918 9.835c-.708.37-1.774.541-2.128.591l-.009-.05c1.202-.743 1.57-2.143 1.57-2.143a7.85 7.85 0 01-1.895.792 5.472 5.472 0 01-.668.137 4.125 4.125 0 00-6.995 3.704c-1.103-.016-5.082-.354-8.38-4.185 0 0-1.836 3.204 1.251 5.393 0 0-1.251-.039-1.915-.508 0 0-.195 3.087 3.361 4.064 0 0-1.25.313-1.876.039 0 0 .626 2.657 3.752 2.853 0 0-2.242 2.053-5.904 1.757a11.6 11.6 0 006.225 1.8c6.436 0 11.654-5.218 11.654-11.654l-.002-.241c.002-.048.002-.095.002-.143l-.001-.1c1.19-.793 1.958-2.108 1.958-2.108z"/></symbol>
</defs>
</svg>
